<svg width="512" height="512" viewBox="0 0 512 512" fill="none" xmlns="http://www.w3.org/2000/svg">
<g clip-path="url(#clip0_2111_3)">
<rect width="512" height="512" rx="256" fill="black"/>
<g filter="url(#filter0_d_2111_3)">
<path d="M330.286 206.577L271.479 153.353C260.279 143.217 242.984 144.079 232.848 155.278L197.059 194.821C186.923 206.021 187.785 223.316 198.984 233.453L257.792 286.676" stroke="white" stroke-width="25.8462"/>
<path d="M254.037 211.345L312.845 264.569C324.044 274.705 324.906 292.001 314.77 303.2L278.981 342.743C268.845 353.943 251.55 354.805 240.35 344.668L181.543 291.445" stroke="white" stroke-width="25.8462"/>
</g>
</g>
<rect x="5.97949" y="5.97949" width="500.041" height="500.041" rx="250.021" stroke="url(#paint0_radial_2111_3)" stroke-width="11.959"/>
<defs>
<filter id="filter0_d_2111_3" x="-25.3721" y="-61.2059" width="562.573" height="627.793" filterUnits="userSpaceOnUse" color-interpolation-filters="sRGB">
<feFlood flood-opacity="0" result="BackgroundImageFix"/>
<feColorMatrix in="SourceAlpha" type="matrix" values="0 0 0 0 0 0 0 0 0 0 0 0 0 0 0 0 0 0 127 0" result="hardAlpha"/>
<feOffset dy="3.67969"/>
<feGaussianBlur stdDeviation="99.1216"/>
<feComposite in2="hardAlpha" operator="out"/>
<feColorMatrix type="matrix" values="0 0 0 0 1 0 0 0 0 1 0 0 0 0 1 0 0 0 1 0"/>
<feBlend mode="normal" in2="BackgroundImageFix" result="effect1_dropShadow_2111_3"/>
<feBlend mode="normal" in="SourceGraphic" in2="effect1_dropShadow_2111_3" result="shape"/>
</filter>
<radialGradient id="paint0_radial_2111_3" cx="0" cy="0" r="1" gradientUnits="userSpaceOnUse" gradientTransform="translate(47 82.5) rotate(62.0028) scale(268.412)">
<stop stop-color="white"/>
<stop offset="1" stop-color="white" stop-opacity="0"/>
</radialGradient>
<clipPath id="clip0_2111_3">
<rect width="512" height="512" rx="256" fill="white"/>
</clipPath>
</defs>
</svg>
